<svg xmlns="http://www.w3.org/2000/svg" width="26" height="26" viewBox="0 0 26 26">
  <g id="セッション" transform="translate(-288 -38)">
    <path id="Path_1503" data-name="Path 1503" d="M313.091,43.988a2.994,2.994,0,1,1,2.972-2.972A2.975,2.975,0,0,1,313.091,43.988Zm0-4.049a1.07,1.07,0,0,0-1.033,1.078,1.033,1.033,0,1,0,2.066,0A1.07,1.07,0,0,0,313.091,39.939Z" transform="translate(-18.782)" fill="#fff"/>
    <path id="Path_1504" data-name="Path 1504" d="M296.5,64a2.555,2.555,0,0,1-1.484-.475,2.561,2.561,0,0,1-4.046-2.087V55.014A2.563,2.563,0,0,1,288,52.484V48.032a4.05,4.05,0,0,1,4.046-4.046H296.5a2.544,2.544,0,0,1,1.811.75l.079.079V40.562A2.564,2.564,0,0,1,300.951,38h10.488A2.565,2.565,0,0,1,314,40.562v7.47a2.564,2.564,0,0,1-2.562,2.562h-8.4l-2.428,1.214a2.586,2.586,0,0,1-1.148.27,2.557,2.557,0,0,1-.4-.032v9.393A2.565,2.565,0,0,1,296.5,64Zm-1.484-11.109a1.079,1.079,0,0,1,1.078,1.078v7.47a.407.407,0,0,0,.813,0V50.108a1.078,1.078,0,0,1,1.839-.739l.435.435a.4.4,0,0,0,.286.119.416.416,0,0,0,.184-.043l2.967-1.484a.407.407,0,1,0-.363-.728l-2.012,1.006a1.083,1.083,0,0,1-.482.114,1.071,1.071,0,0,1-.762-.316l-2.212-2.212a.4.4,0,0,0-.287-.119h-4.452a1.893,1.893,0,0,0-1.891,1.891v4.452a.407.407,0,0,0,.813,0V48.032a1.077,1.077,0,1,1,2.155,0V61.438a.407.407,0,0,0,.813,0v-7.47A1.079,1.079,0,0,1,295.014,52.891Zm16.424-4.452a.407.407,0,0,0,.406-.407v-7.47a.407.407,0,0,0-.406-.406H300.951a.407.407,0,0,0-.407.406v5.551l.745-.372a2.537,2.537,0,0,1,1.145-.272,2.589,2.589,0,0,1,1.6.56l3.856-1.928a1.077,1.077,0,0,1,1.446.482,1.079,1.079,0,0,1-.482,1.446L305,47.956a2.533,2.533,0,0,1-.032.483Z" transform="translate(0 0)" fill="#fff"/>
  </g>
</svg>
