<svg xmlns="http://www.w3.org/2000/svg" width="25.4" height="25.4" viewBox="0 0 25.4 25.4">
  <g id="Group_969" data-name="Group 969" transform="translate(6.2 6.2)">
    <g id="Group_968" data-name="Group 968" transform="translate(-6 -6)">
      <path id="Path_1505" data-name="Path 1505" d="M156,140.8l-2.969,4.876h-.107l-2.863-4.876H148.1l3.071,5.14h-2.013v1.322h2.812l.051.107v.8h-2.913v1.378h2.862V151.4h1.907v-1.907h2.862v-1.322h-2.862v-.8l.051-.107h2.812V145.94h-1.963l3.127-5.14Z" transform="translate(-140.526 -133.598)" fill="#fff" stroke="#fff" stroke-width="0.4"/>
      <path id="Path_1506" data-name="Path 1506" d="M6.5,19A12.485,12.485,0,0,1-6,6.5,12.488,12.488,0,0,1,6.5-6,12.485,12.485,0,0,1,19,6.5,12.481,12.481,0,0,1,6.5,19Zm0-23.362A10.847,10.847,0,0,0-4.362,6.5,10.847,10.847,0,0,0,6.5,17.362,10.847,10.847,0,0,0,17.362,6.5,10.847,10.847,0,0,0,6.5-4.362Z" transform="translate(6 6)" fill="#fff" stroke="#fff" stroke-width="0.4"/>
    </g>
  </g>
</svg>
