<svg xmlns="http://www.w3.org/2000/svg" width="36" height="36.029" viewBox="0 0 36 36.029">
  <g id="グループ_971" data-name="グループ 971" transform="translate(-3.7 -4.7)">
    <path id="パス_1509" data-name="パス 1509" d="M38.089,38.729a1.617,1.617,0,0,1-1.142-.469l-8.495-8.495a15.2,15.2,0,0,1-9.52,3.339h0A15.2,15.2,0,1,1,34.105,17.9a15.307,15.307,0,0,1-3.369,9.549l8.495,8.495a1.6,1.6,0,0,1,.469,1.142,1.617,1.617,0,0,1-.469,1.142A1.529,1.529,0,0,1,38.089,38.729ZM18.9,5.981A11.922,11.922,0,1,0,30.824,17.9,11.932,11.932,0,0,0,18.9,5.981Z" transform="translate(0 2)" fill="#5a7f91"/>
  </g>
</svg>
