<svg xmlns="http://www.w3.org/2000/svg" width="19.173" height="25.433" viewBox="0 0 19.173 25.433">
  <g id="予約履歴" transform="translate(-315.15 -1278.584)">
    <path id="Path_1326" data-name="Path 1326" d="M381.718,1475.678a.966.966,0,0,1-.692-.288l-1.564-1.564a.978.978,0,0,1,1.383-1.383l.873.874,2.438-2.439a.979.979,0,0,1,1.385,1.385l-3.13,3.13A.978.978,0,0,1,381.718,1475.678Z" transform="translate(-60.895 -182.617)" fill="#fff"/>
    <path id="Path_1327" data-name="Path 1327" d="M381.715,1603.678a.97.97,0,0,1-.691-.286l-1.565-1.565a.978.978,0,0,1,1.383-1.383l.873.873,2.438-2.439a.979.979,0,0,1,1.385,1.385l-3.13,3.13A.979.979,0,0,1,381.715,1603.678Z" transform="translate(-60.892 -304.356)" fill="#fff"/>
    <path id="Path_1328" data-name="Path 1328" d="M540.128,1504.541a.978.978,0,1,1,0-1.956h3.13a.978.978,0,1,1,0,1.956Z" transform="translate(-213.044 -213.044)" fill="#fff"/>
    <path id="Path_1329" data-name="Path 1329" d="M540.128,1632.54a.978.978,0,1,1,0-1.956h3.13a.978.978,0,1,1,0,1.956Z" transform="translate(-213.044 -334.784)" fill="#fff"/>
    <path id="Path_1330" data-name="Path 1330" d="M316.911,1304.017a1.763,1.763,0,0,1-1.761-1.761v-18.781a1.763,1.763,0,0,1,1.761-1.761h2.935v-.587a.979.979,0,0,1,.978-.978h1.564a2.545,2.545,0,0,1,4.7,0h1.564a.979.979,0,0,1,.978.978v.587h2.935a1.763,1.763,0,0,1,1.761,1.761v18.781a1.763,1.763,0,0,1-1.761,1.761Zm15.456-1.956v-18.39h-2.739v.587a.979.979,0,0,1-.978.978h-7.826a.979.979,0,0,1-.978-.978v-.587h-2.739v18.39Zm-4.7-18.781v-1.174H326.3a.979.979,0,0,1-.978-.978.587.587,0,1,0-1.174,0,.979.979,0,0,1-.978.978H321.8v1.174Z" fill="#fff"/>
  </g>
</svg>
