<svg xmlns="http://www.w3.org/2000/svg" width="26.711" height="34.343" viewBox="0 0 26.711 34.343">
  <g id="グループ_955" data-name="グループ 955" transform="translate(-149.176 -251.74)">
    <circle id="楕円形_31" data-name="楕円形 31" cx="5.02" cy="5.02" r="5.02" transform="translate(155.437 258.599) rotate(-43.101)" fill="#a6cb30"/>
    <path id="パス_1454" data-name="パス 1454" d="M175.233,282.617a2.337,2.337,0,0,0-3.18-.083l-5.137,4.407a6.735,6.735,0,0,1-4.385,1.623h0a6.735,6.735,0,0,1-4.385-1.623l-5.137-4.407a2.337,2.337,0,0,0-3.18.083,2.286,2.286,0,0,0,.143,3.335l7.27,6.238v14.919a2.207,2.207,0,0,0,2.207,2.207h0a2.207,2.207,0,0,0,2.207-2.207v-4.627a.875.875,0,0,1,.875-.875h0a.875.875,0,0,1,.875.875v4.551a2.256,2.256,0,0,0,2.06,2.277,2.207,2.207,0,0,0,2.354-2.2V292.19l7.27-6.238A2.286,2.286,0,0,0,175.233,282.617Z" transform="translate(0 -23.232)" fill="#a6cb30"/>
  </g>
</svg>
