<svg xmlns="http://www.w3.org/2000/svg" width="32" height="33.031" viewBox="0 0 32 33.031">
  <g id="グループ_978" data-name="グループ 978" transform="translate(0 0)">
    <path id="パス_1512" data-name="パス 1512" d="M29.348,2.761V4.425a3.064,3.064,0,0,1-3.03,3.066h-.155a3.077,3.077,0,0,1-3.045-3.066V2.54H19.8V4.425a3.076,3.076,0,0,1-3.044,3.066h-.153a3.065,3.065,0,0,1-3.033-3.066V2.54H10.2V4.425a3.038,3.038,0,0,1-3,3.066H7.048A3.054,3.054,0,0,1,4.03,4.425V2.786A4.852,4.852,0,0,0,.716,7.417v21.7A4.836,4.836,0,0,0,5.55,33.972H27.888a4.83,4.83,0,0,0,4.828-4.858V7.417A4.88,4.88,0,0,0,29.348,2.761Z" transform="translate(-0.716 -0.941)" fill="#f87061"/>
    <path id="パス_1513" data-name="パス 1513" d="M8.689,4.6h.134a1.359,1.359,0,0,0,1.042-.47,1.344,1.344,0,0,0,.331-.891h0V1.364h0A1.373,1.373,0,0,0,9.8.394s0-.005,0-.007l0,.006A1.366,1.366,0,0,0,8.823,0H8.689a1.368,1.368,0,0,0-.972.39h0S7.7.394,7.7.4a1.373,1.373,0,0,0-.4.968h0V3.235h0a1.352,1.352,0,0,0,.338.891A1.375,1.375,0,0,0,8.689,4.6Z" transform="translate(-2.153 -0.001)" fill="#f87061"/>
    <path id="パス_1514" data-name="パス 1514" d="M21.155,4.376l.011,0s.011-.005.014,0a1.374,1.374,0,0,0,.763.219h.134a1.358,1.358,0,0,0,.653-.154s0,0,.006,0,0,0,0-.006a1.368,1.368,0,0,0,.7-1.2V1.363A1.371,1.371,0,0,0,22.9.262s0,0,0-.006l0,.011A1.355,1.355,0,0,0,22.078,0h-.134a1.366,1.366,0,0,0-.927.348v0S21,.349,21,.351a1.379,1.379,0,0,0-.455,1.013V3.237A1.387,1.387,0,0,0,21.155,4.376Z" transform="translate(-6.046 -0.001)" fill="#f87061"/>
    <path id="パス_1515" data-name="パス 1515" d="M35.227,4.6h.134a1.392,1.392,0,0,0,1.057-.47,1.356,1.356,0,0,0,.345-.891h0V1.363h0A1.393,1.393,0,0,0,36.036.151l-.011,0C35.99.129,35.953.113,35.918.1L35.9.09,35.875.08,35.836.065l-.02-.007c-.014-.005-.03,0-.043,0A1.379,1.379,0,0,0,35.362,0h-.134a1.321,1.321,0,0,0-.2.006,1.363,1.363,0,0,0-1.163,1.355V3.236A1.347,1.347,0,0,0,35.227,4.6Z" transform="translate(-9.953 0)" fill="#f87061"/>
    <path id="パス_1516" data-name="パス 1516" d="M-4.308-4.63h-9.713v-2.1l4.474-4.7q1.654-1.883,1.654-2.992A2.081,2.081,0,0,0-8.285-15.8a1.4,1.4,0,0,0-1.138-.468,1.417,1.417,0,0,0-1.2.626,2.574,2.574,0,0,0-.459,1.563h-3.231a4.571,4.571,0,0,1,.641-2.366,4.492,4.492,0,0,1,1.778-1.7,5.282,5.282,0,0,1,2.543-.612,5.2,5.2,0,0,1,3.475,1.042,3.72,3.72,0,0,1,1.219,2.992,4.345,4.345,0,0,1-.306,1.6,7.023,7.023,0,0,1-.951,1.635,23.962,23.962,0,0,1-2.079,2.29l-1.8,2.075h5.478Z" transform="translate(25.225 30.833)" fill="#fff"/>
  </g>
</svg>
