<svg id="icon_Credit_1" data-name="icon/Credit 1" xmlns="http://www.w3.org/2000/svg" width="71" height="51" viewBox="0 0 71 51">
  <g id="Rectangle_2" data-name="Rectangle 2" transform="translate(0 0)" fill="#fff" stroke="#979797" stroke-miterlimit="10" stroke-width="0.6">
    <rect width="71" height="51" rx="3" stroke="none"/>
    <rect x="0.3" y="0.3" width="70.4" height="50.4" rx="2.7" fill="none"/>
  </g>
  <g id="Rectangle_2-2" data-name="Rectangle 2" transform="translate(4 19)" fill="#fff" stroke="#979797" stroke-miterlimit="10" stroke-width="0.6">
    <rect width="62" height="12" rx="3" stroke="none"/>
    <rect x="0.3" y="0.3" width="61.4" height="11.4" rx="2.7" fill="none"/>
  </g>
  <text id="_000" data-name="000" transform="translate(44 17)" fill="#999" font-size="6" font-family="NotoSansCJKjp-Regular, Noto Sans CJK JP" letter-spacing="0.071em"><tspan x="0" y="7">000</tspan></text>
  <g id="Rectangle_2-3" data-name="Rectangle 2" transform="translate(0 0)" fill="#ccc" stroke="#979797" stroke-miterlimit="10" stroke-width="0.6">
    <path d="M3,0H68a3,3,0,0,1,3,3v9a0,0,0,0,1,0,0H0a0,0,0,0,1,0,0V3A3,3,0,0,1,3,0Z" stroke="none"/>
    <path d="M3,.3H68A2.7,2.7,0,0,1,70.7,3v8.4a.3.3,0,0,1-.3.3H.6a.3.3,0,0,1-.3-.3V3A2.7,2.7,0,0,1,3,.3Z" fill="none"/>
  </g>
  <circle id="Oval" cx="15.5" cy="15.5" r="15.5" transform="translate(36 9)" fill="none" stroke="#5a7f91" stroke-miterlimit="10" stroke-width="2"/>
</svg>
