<svg xmlns="http://www.w3.org/2000/svg" width="21.989" height="21.92" viewBox="0 0 21.989 21.92">
  <g id="logout" transform="translate(-340.55 -255.499)">
    <g id="グループ_253" data-name="グループ 253" transform="translate(341.05 255.999)">
      <g id="グループ_252" data-name="グループ 252">
        <path id="パス_1309" data-name="パス 1309" d="M351.51,275.175h-7.845a.872.872,0,0,1-.872-.872v-15.69a.872.872,0,0,1,.872-.872h7.845a.872.872,0,0,0,0-1.743h-7.845a2.618,2.618,0,0,0-2.615,2.615V274.3a2.618,2.618,0,0,0,2.615,2.615h7.845a.872.872,0,0,0,0-1.743Z" transform="translate(-341.05 -255.999)" fill="#333" stroke="#333" stroke-width="1"/>
      </g>
    </g>
    <g id="グループ_254" data-name="グループ 254" transform="translate(348.023 260.357)">
      <path id="パス_1310" data-name="パス 1310" d="M524.906,367.795l-5.3-5.23a.872.872,0,0,0-1.224,1.241l3.787,3.738H512.022a.872.872,0,0,0,0,1.743H522.17l-3.787,3.738a.872.872,0,1,0,1.224,1.241l5.3-5.23a.871.871,0,0,0,0-1.241Z" transform="translate(-511.15 -362.314)" fill="#333" stroke="#333" stroke-width="1"/>
    </g>
  </g>
</svg>
