<svg xmlns="http://www.w3.org/2000/svg" width="24.621" height="24.274" viewBox="0 0 24.621 24.274">
  <g id="Group_922" data-name="Group 922" transform="translate(-7.064 -7.722)">
    <path id="Path_1373" data-name="Path 1373" d="M347.826,394.681a.932.932,0,1,1,.932-.932A.933.933,0,0,1,347.826,394.681Z" transform="translate(-323.41 -366.518)" fill="#fff" stroke="#fff" stroke-width="0.5"/>
    <path id="Path_1374" data-name="Path 1374" d="M301.878,136.992a.932.932,0,1,1,.932-.932A.933.933,0,0,1,301.878,136.992Z" transform="translate(-279.65 -121.098)" fill="#fff" stroke="#fff" stroke-width="0.5"/>
    <path id="Path_1375" data-name="Path 1375" d="M7.314,30.788V26.865a.479.479,0,0,1,.479-.479h.249a2.137,2.137,0,0,0,2.143-2.143,2.109,2.109,0,0,0-2.106-2.07H7.793a.479.479,0,0,1-.479-.479V16.814h.135l-.049-.1L25.722,8.068A.958.958,0,0,1,27,8.526l1.771,3.765a.24.24,0,0,1-.106.314l-.448.233a2.1,2.1,0,0,0-1.135,1.918,2.13,2.13,0,0,0,2.143,2.057h1.733a.479.479,0,0,1,.479.479v4.4a.479.479,0,0,1-.479.479h-.249a2.137,2.137,0,0,0-2.143,2.143,2.109,2.109,0,0,0,2.106,2.07h.286a.479.479,0,0,1,.479.479v3.922a.958.958,0,0,1-.958.958H8.272A.958.958,0,0,1,7.314,30.788Zm17.172-1.529a.78.78,0,0,1,.727.787v.169h4.212a.479.479,0,0,0,.479-.479V27.988a.192.192,0,0,0-.144-.186h0a3.638,3.638,0,0,1,0-7.044h0a.192.192,0,0,0,.144-.186V18.824a.479.479,0,0,0-.479-.479H25.213v.169a.78.78,0,0,1-.727.787.766.766,0,0,1-.8-.765v-.192H9.324a.479.479,0,0,0-.479.479v1.748a.192.192,0,0,0,.144.186h0a3.638,3.638,0,0,1,0,7.044h0a.192.192,0,0,0-.144.185v1.748a.479.479,0,0,0,.479.479H23.682v-.192A.766.766,0,0,1,24.486,29.259ZM11.472,16.482l.074.332H25.872a.192.192,0,0,0,.166-.288h0a3.633,3.633,0,0,1,.74-4.545h0a.192.192,0,0,0,.047-.226l-.764-1.624a.479.479,0,0,0-.638-.229l-3.8,1.791.067.153a.778.778,0,0,1-.354,1.013.758.758,0,0,1-.345.079.788.788,0,0,1-.686-.442l-.074-.146Z" transform="translate(0 0)" fill="#fff" stroke="#fff" stroke-width="0.5"/>
    <path id="Path_1376" data-name="Path 1376" d="M347.826,274.827a.932.932,0,1,1,.932-.932A.933.933,0,0,1,347.826,274.827Z" transform="translate(-323.41 -252.371)" fill="#fff" stroke="#fff" stroke-width="0.5"/>
    <path id="Path_1377" data-name="Path 1377" d="M347.826,334.754a.932.932,0,1,1,.932-.932A.933.933,0,0,1,347.826,334.754Z" transform="translate(-323.41 -309.445)" fill="#fff" stroke="#fff" stroke-width="0.5"/>
  </g>
</svg>
