<svg xmlns="http://www.w3.org/2000/svg" width="31.259" height="45" viewBox="0 0 31.259 45">
  <g id="グループ_952" data-name="グループ 952" transform="translate(-1243.081 -1209.423)">
    <g id="グループ_951" data-name="グループ 951" transform="translate(1243.081 1208.423)">
      <path id="パス_1446" data-name="パス 1446" d="M1319.846,1212.49l-.069,3.32a11.034,11.034,0,0,1,2.242.4l1.131-3.126A14.326,14.326,0,0,0,1319.846,1212.49Z" transform="translate(-1302.158 -1211.475)" fill="#f87061"/>
      <path id="パス_1447" data-name="パス 1447" d="M1301.774,1216.041a11.2,11.2,0,0,1,1.953-.291l.07-3.327a14.5,14.5,0,0,0-2.94.429Z" transform="translate(-1287.584 -1211.423)" fill="#f87061"/>
      <path id="パス_1448" data-name="パス 1448" d="M1273.065,1229.549q.082-.093.167-.185a11.052,11.052,0,0,1,1.21-1.127l-1.832-2.778a14.447,14.447,0,0,0-1.535,1.359C1271.873,1227.72,1273.038,1229.581,1273.065,1229.549Z" transform="translate(-1264.644 -1221.465)" fill="#f87061"/>
      <path id="パス_1449" data-name="パス 1449" d="M1270.035,1230.525l-2.193,2.5a11.15,11.15,0,1,1-17.994,12.668l.008,0q-.107-.205-.2-.417c-.009-.02-.017-.041-.026-.062a7.124,7.124,0,0,1-.431-1.322l2.137-.3a.438.438,0,0,0,.273-.784l-4.523-4.968a.6.6,0,0,0-.5-.184.552.552,0,0,0-.293.137.694.694,0,0,0-.146.187l-2.979,6a.484.484,0,0,0-.015.516.491.491,0,0,0,.494.176l2.2-.309c.025.1.051.2.078.3a10.075,10.075,0,0,0,.605,1.853h.043a14.467,14.467,0,1,0,23.463-15.987Z" transform="translate(-1243.081 -1225.367)" fill="#f87061"/>
      <path id="パス_1450" data-name="パス 1450" d="M1337.262,1217.5q-.274-.129-.552-.245l-1.132,3.129c.091.04.183.079.274.122a11.158,11.158,0,0,1,2.137,1.317l2.191-2.5A14.45,14.45,0,0,0,1337.262,1217.5Z" transform="translate(-1314.329 -1215.141)" fill="#f87061"/>
      <path id="パス_1451" data-name="パス 1451" d="M1284.873,1220.237a11.249,11.249,0,0,1,1.773-.869l-.92-3.2a14.565,14.565,0,0,0-2.68,1.3Z" transform="translate(-1273.865 -1214.31)" fill="#f87061"/>
      <text id="ALL" transform="translate(27 42)" fill="#f87061" font-size="12" font-family="NotoSansCJKjp-Black, Noto Sans CJK JP" font-weight="800"><tspan x="-22.248" y="0">ALL</tspan></text>
    </g>
  </g>
</svg>
