<svg xmlns="http://www.w3.org/2000/svg" width="24.252" height="46.11" viewBox="0 0 24.252 46.11">
  <g id="グループ_949" data-name="グループ 949" transform="translate(-557.939 -187.776)">
    <path id="パス_1444" data-name="パス 1444" d="M581.988,252.592,577.078,242a2.177,2.177,0,0,0-1.975-1.261H565.027A2.178,2.178,0,0,0,563.051,242l-4.91,10.588a2.177,2.177,0,1,0,3.951,1.832l2.934-6.328v25.61a2.15,2.15,0,0,0,1.962,2.17,2.1,2.1,0,0,0,2.242-2.1V260.844a.833.833,0,0,1,.833-.833h0a.833.833,0,0,1,.833.833v12.934a2.1,2.1,0,0,0,2.1,2.1h0a2.1,2.1,0,0,0,2.1-2.1V248.1l2.934,6.328a2.177,2.177,0,1,0,3.951-1.832Z" transform="translate(0 -41.994)" fill="#52a3cb"/>
    <path id="パス_1445" data-name="パス 1445" d="M596.091,200.45a4.782,4.782,0,1,0-4.782-4.782A4.782,4.782,0,0,0,596.091,200.45Z" transform="translate(-26.026 -3.11)" fill="#52a3cb"/>
  </g>
</svg>
