<svg xmlns="http://www.w3.org/2000/svg" width="448" height="107.943" viewBox="0 0 448 107.943">
  <g id="電車" transform="translate(-96 -44.224)">
    <g id="グループ_967" data-name="グループ 967" transform="translate(425.209 44.224)">
      <path id="パス_1461" data-name="パス 1461" d="M1412.488,52.216a1.918,1.918,0,0,1-1.826-2.5l4.034-12.649-10.39-7.017-10.01,7.027,3.367,12.313a1.916,1.916,0,1,1-3.7,1.011l-3.723-13.613a1.915,1.915,0,0,1,.747-2.074l12.193-8.559a1.917,1.917,0,0,1,2.173-.019L1418.03,34.7a1.917,1.917,0,0,1,.753,2.17l-4.47,14.016a1.918,1.918,0,0,1-1.825,1.334Z" transform="translate(-1346.053 -25.809)" fill="#414754"/>
      <path id="パス_1462" data-name="パス 1462" d="M1365.7,202.5l-7.857-9.887c-.533.422,6.119.283-84.681.283a7.962,7.962,0,0,0-7.786,6.308l-1.4,6.6a7.964,7.964,0,0,0,7.786,9.623h96.026v-6.96a9.6,9.6,0,0,0-2.084-5.968Z" transform="translate(-1248.994 -153.909)" fill="#ebf7fe"/>
      <path id="パス_1463" data-name="パス 1463" d="M1310.651,198.749h8.143V187h-23.47V164.471c14.635,0,13.019.121,13.53-.283l-3.947-4.967a9.582,9.582,0,0,0-7.5-3.619h-87.826a9.585,9.585,0,0,0-9.58,9.589v44.1a9.585,9.585,0,0,0,9.58,9.589h6.227a13.412,13.412,0,1,1,26.824,0h31.135a13.412,13.412,0,1,1,26.824,0h8.622a9.585,9.585,0,0,0,9.58-9.589v-2.876h-8.143a3.834,3.834,0,0,1,0-7.669ZM1222.768,187a7.964,7.964,0,0,1-7.786-9.623l1.4-6.6a7.963,7.963,0,0,1,7.786-6.308H1238.8V187h-16.035Zm19.866,0V164.471h20.118V187Zm23.95,0V164.471h24.908V187Z" transform="translate(-1200.003 -125.489)" fill="#71a2e6"/>
      <path id="パス_1464" data-name="パス 1464" d="M1220.567,342.27a13.4,13.4,0,0,0-4.757,10.255h-6.227a9.585,9.585,0,0,1-9.58-9.589V329.62A30.823,30.823,0,0,0,1220.567,342.27Z" transform="translate(-1200.003 -259.132)" fill="#497fbc"/>
      <path id="パス_1465" data-name="パス 1465" d="M1637.3,385.62a9.59,9.59,0,0,1-9.579,9.913H1619.1a13.4,13.4,0,0,0-4.366-9.913Z" transform="translate(-1518.509 -302.139)" fill="#497fbc"/>
      <path id="パス_1466" data-name="パス 1466" d="M1364.927,385.62h39.867a13.4,13.4,0,0,0-4.367,9.913h-31.135a13.4,13.4,0,0,0-4.365-9.913Z" transform="translate(-1326.662 -302.139)" fill="#497fbc"/>
      <path id="パス_1467" data-name="パス 1467" d="M1308.853,164.189c-.533.422,6.119.283-84.681.283a7.961,7.961,0,0,0-7.786,6.308l-1.439,6.775A32.764,32.764,0,0,1,1200,166.541v-1.348a9.588,9.588,0,0,1,9.58-9.589h87.826a9.582,9.582,0,0,1,7.5,3.619Z" transform="translate(-1200.003 -125.489)" fill="#aac7f0"/>
      <path id="パス_1468" data-name="パス 1468" d="M1672.362,341.564v7.669h-8.143a3.834,3.834,0,0,1,0-7.669Z" transform="translate(-1553.571 -268.304)" fill="#fee8b4"/>
      <path id="パス_1469" data-name="パス 1469" d="M1531.348,370.487a13.423,13.423,0,1,1-13.411,13.424A13.418,13.418,0,0,1,1531.348,370.487Zm1.916,13.424a1.916,1.916,0,1,0-1.916,1.916A1.916,1.916,0,0,0,1533.264,383.911Z" transform="translate(-1444.171 -290.517)" fill="#414754"/>
      <path id="パス_1470" data-name="パス 1470" d="M1411.738,122.094v3.36h-38.319v-3.36a5.75,5.75,0,0,1,5.748-5.748h26.823A5.749,5.749,0,0,1,1411.738,122.094Z" transform="translate(-1333.183 -95.34)" fill="#fcdca0"/>
      <path id="パス_1471" data-name="パス 1471" d="M1294.956,383.911a13.412,13.412,0,1,1-13.412-13.424A13.417,13.417,0,0,1,1294.956,383.911Zm-11.5,0a1.916,1.916,0,1,0-1.916,1.916A1.916,1.916,0,0,0,1283.459,383.911Z" transform="translate(-1252.324 -290.517)" fill="#414754"/>
      <path id="パス_1472" data-name="パス 1472" d="M1313.251,419.485a3.833,3.833,0,1,1,3.832-3.832A3.836,3.836,0,0,1,1313.251,419.485Zm0-3.836v0Z" transform="translate(-1284.032 -322.259)" fill="#292d31"/>
      <path id="パス_1473" data-name="パス 1473" d="M1563.056,419.485a3.833,3.833,0,1,1,3.832-3.832A3.836,3.836,0,0,1,1563.056,419.485Zm0-3.836v0Z" transform="translate(-1475.879 -322.259)" fill="#292d31"/>
      <path id="パス_1474" data-name="パス 1474" d="M1534,329.9h-3.832a1.916,1.916,0,0,1,0-3.832H1534a1.916,1.916,0,1,1,0,3.832Z" transform="translate(-1452.097 -256.404)" fill="#fff"/>
      <path id="パス_1475" data-name="パス 1475" d="M1200,326.069h9.819a1.916,1.916,0,1,1,0,3.832H1200Z" transform="translate(-1200 -256.404)" fill="#e05a7f"/>
      <path id="パス_1476" data-name="パス 1476" d="M1200,357.068h7.424a1.916,1.916,0,1,1,0,3.832H1200Z" transform="translate(-1200 -280.211)" fill="#fff"/>
    </g>
    <g id="グループ_966" data-name="グループ 966" transform="translate(267.852 64.817)">
      <g id="グループ_962" data-name="グループ 962" transform="translate(4.365 74.211)">
        <circle id="楕円形_60" data-name="楕円形 60" cx="4.365" cy="4.365" r="4.365" transform="translate(109.134)" fill="#4d5d7a"/>
        <circle id="楕円形_61" data-name="楕円形 61" cx="4.365" cy="4.365" r="4.365" transform="translate(87.307)" fill="#4d5d7a"/>
        <circle id="楕円形_62" data-name="楕円形 62" cx="4.365" cy="4.365" r="4.365" transform="translate(21.827)" fill="#4d5d7a"/>
        <circle id="楕円形_63" data-name="楕円形 63" cx="4.365" cy="4.365" r="4.365" fill="#4d5d7a"/>
      </g>
      <path id="パス_1477" data-name="パス 1477" d="M606,136.731h87.307A8.731,8.731,0,0,0,684.577,128H608.183" transform="translate(-606 -128)" fill="#8892a0"/>
      <path id="パス_1478" data-name="パス 1478" d="M732.6,376.731H606V368H732.6Z" transform="translate(-606 -302.52)" fill="#8892a0"/>
      <path id="パス_1479" data-name="パス 1479" d="M606,160h84.393a52.384,52.384,0,0,1,46.122,27.55l.445.825V216.75H606" transform="translate(-606 -151.269)" fill="#d98e16"/>
      <path id="パス_1480" data-name="パス 1480" d="M670.7,160c2.543,24.387,33.234,43.654,70.745,43.654,15.971,0,30.706-3.492,42.562-9.386V167.114c0-4.846-1.587-7.114-6.866-7.114Z" transform="translate(-653.05 -151.269)" fill="#e09f37"/>
      <path id="パス_1481" data-name="パス 1481" d="M1062.731,304h-4.365a4.365,4.365,0,0,0,0,8.731h4.365" transform="translate(-931.77 -255.981)" fill="#f9d18b"/>
      <path id="パス_1482" data-name="パス 1482" d="M918.019,192H870v21.827h48.019Z" transform="translate(-797.972 -174.539)" fill="#ebf7fe"/>
      <path id="パス_1483" data-name="パス 1483" d="M758,192h21.827v21.827H758Z" transform="translate(-716.529 -174.539)" fill="#ebf7fe"/>
      <path id="パス_1484" data-name="パス 1484" d="M646,192h21.827v21.827H646Z" transform="translate(-635.087 -174.539)" fill="#ebf7fe"/>
      <path id="パス_1485" data-name="パス 1485" d="M736.961,436.365H606V432H736.961Z" transform="translate(-606 -349.058)" fill="#8892a0"/>
    </g>
    <g id="グループ_965" data-name="グループ 965" transform="translate(96 64.817)">
      <path id="パス_1486" data-name="パス 1486" d="M155.532,234.662h18.39V204.779l-10.436-27.83A13.791,13.791,0,0,0,150.571,168H49.792A13.791,13.791,0,0,0,36,181.792v52.87H54.39" transform="translate(-36 -168)" fill="#669e4f"/>
      <path id="パス_1487" data-name="パス 1487" d="M84.273,218.571c38.1,0,70.485-13.806,82.424-33.055l-3.211-8.565A13.79,13.79,0,0,0,150.571,168H49.792A13.791,13.791,0,0,0,36,181.792v28.543C49.831,215.535,66.423,218.571,84.273,218.571Z" transform="translate(-36 -168)" fill="#78b75b"/>
      <path id="パス_1488" data-name="パス 1488" d="M36,312h9.195v9.195l-6.9,6.9H36" transform="translate(-36 -270.624)" fill="#e47c6e"/>
      <path id="パス_1489" data-name="パス 1489" d="M493.195,329.195H484V320h9.195" transform="translate(-355.273 -276.325)" fill="#f9d18b"/>
      <circle id="楕円形_64" data-name="楕円形 64" cx="16.091" cy="16.091" r="16.091" transform="translate(87.35 50.571)" fill="#4d5d7a"/>
      <circle id="楕円形_65" data-name="楕円形 65" cx="16.091" cy="16.091" r="16.091" transform="translate(18.39 50.571)" fill="#4d5d7a"/>
      <circle id="楕円形_66" data-name="楕円形 66" cx="6.896" cy="6.896" r="6.896" transform="translate(96.545 59.766)" fill="#8892a0"/>
      <circle id="楕円形_67" data-name="楕円形 67" cx="6.896" cy="6.896" r="6.896" transform="translate(27.584 59.766)" fill="#8892a0"/>
      <path id="パス_1490" data-name="パス 1490" d="M68,222.987H182.935l-5.912-19.711a4.6,4.6,0,0,0-4.4-3.276H72.6a4.6,4.6,0,0,0-4.6,4.6Z" transform="translate(-58.805 -190.805)" fill="#ebf7fe"/>
      <path id="パス_1491" data-name="パス 1491" d="M105.928,216.091c28.977,0,54.2-6.453,67.345-15.983a4.142,4.142,0,0,0-.655-.108H72.6a4.6,4.6,0,0,0-4.6,4.6v7.464A172.1,172.1,0,0,0,105.928,216.091Z" transform="translate(-58.805 -190.805)" fill="#ebf7fe"/>
      <g id="グループ_963" data-name="グループ 963" transform="translate(0 9.195)">
        <path id="パス_1492" data-name="パス 1492" d="M36,456H173.922v4.6H36Z" transform="translate(-36 -382.442)" fill="#8892a0"/>
        <path id="パス_1493" data-name="パス 1493" d="M356,200h4.6v22.987H356Z" transform="translate(-264.052 -200)" fill="#8892a0"/>
        <path id="パス_1494" data-name="パス 1494" d="M268,200h4.6v22.987H268Z" transform="translate(-201.338 -200)" fill="#8892a0"/>
        <path id="パス_1495" data-name="パス 1495" d="M188,200h4.6v22.987H188Z" transform="translate(-144.325 -200)" fill="#8892a0"/>
        <path id="パス_1496" data-name="パス 1496" d="M108,200h4.6v22.987H108Z" transform="translate(-87.312 -200)" fill="#8892a0"/>
      </g>
      <path id="パス_1497" data-name="パス 1497" d="M348,304h9.195v4.6H348Z" transform="translate(-258.351 -264.922)" fill="#fff"/>
      <path id="パス_1498" data-name="パス 1498" d="M252,304h9.195v4.6H252Z" transform="translate(-189.935 -264.922)" fill="#fff"/>
    </g>
  </g>
</svg>
